<?xml version="1.0" encoding="UTF-8"?>
<!DOCTYPE svg PUBLIC "-//W3C//DTD SVG 1.1//EN" "http://www.w3.org/Graphics/SVG/1.1/DTD/svg11.dtd">
<svg xmlns="http://www.w3.org/2000/svg" version="1.1" width="30px" height="30px" style="shape-rendering:geometricPrecision; text-rendering:geometricPrecision; image-rendering:optimizeQuality; fill-rule:evenodd; clip-rule:evenodd" xmlns:xlink="http://www.w3.org/1999/xlink">
<g><path style="opacity:0.755" fill="#000000" d="M 29.5,7.5 C 29.5,8.83333 29.5,10.1667 29.5,11.5C 28.1667,14.8333 28.1667,18.1667 29.5,21.5C 29.5,23.1667 29.5,24.8333 29.5,26.5C 28.3121,27.6843 27.1455,27.6843 26,26.5C 25.7602,23.3429 25.9269,20.1762 26.5,17C 26.4397,13.9539 25.273,11.4539 23,9.5C 23.7395,12.7487 24.0728,16.0821 24,19.5C 20.7869,26.4816 15.6203,28.315 8.5,25C 7.45819,23.082 6.29152,21.2487 5,19.5C 4.92716,16.0821 5.2605,12.7487 6,9.5C 5.16667,10.5 4.33333,11.5 3.5,12.5C 2.26381,11.7542 0.930472,11.4208 -0.5,11.5C -0.5,10.1667 -0.5,8.83333 -0.5,7.5C 4.3323,4.9186 9.3323,2.58526 14.5,0.5C 19.6677,2.58526 24.6677,4.9186 29.5,7.5 Z M 10.5,13.5 C 14.8284,13.0366 18.8284,13.8699 22.5,16C 20.8333,18.3333 19.1667,20.6667 17.5,23C 15.5,23.6667 13.5,23.6667 11.5,23C 9.83333,20.6667 8.16667,18.3333 6.5,16C 8.31966,15.7996 9.653,14.9663 10.5,13.5 Z"/></g>
</svg>
