<?xml version="1.0" encoding="UTF-8"?>
<!DOCTYPE svg PUBLIC "-//W3C//DTD SVG 1.1//EN" "http://www.w3.org/Graphics/SVG/1.1/DTD/svg11.dtd">
<svg xmlns="http://www.w3.org/2000/svg" version="1.1" width="60px" height="60px" style="shape-rendering:geometricPrecision; text-rendering:geometricPrecision; image-rendering:optimizeQuality; fill-rule:evenodd; clip-rule:evenodd" xmlns:xlink="http://www.w3.org/1999/xlink">
<g><path style="opacity:0.86" fill="#000000" d="M 59.5,17.5 C 59.5,18.8333 59.5,20.1667 59.5,21.5C 58.8826,21.6107 58.3826,21.944 58,22.5C 57.3333,29.5 57.3333,36.5 58,43.5C 58.3826,44.056 58.8826,44.3893 59.5,44.5C 59.5,46.5 59.5,48.5 59.5,50.5C 56.9713,57.0176 54.4713,57.0176 52,50.5C 52.917,45.182 53.417,39.682 53.5,34C 53.1667,30.8333 52.8333,27.6667 52.5,24.5C 51.8333,24.8333 51.1667,25.1667 50.5,25.5C 49.9546,20.5107 47.288,17.344 42.5,16C 31.8315,13.3691 21.4981,14.2025 11.5,18.5C 10.35,20.7628 9.35002,23.0962 8.5,25.5C 5.5918,23.8775 2.5918,22.5442 -0.5,21.5C -0.5,20.1667 -0.5,18.8333 -0.5,17.5C 9.24016,11.6306 19.2402,6.29726 29.5,1.5C 39.7598,6.29726 49.7598,11.6306 59.5,17.5 Z"/></g>
<g><path style="opacity:0.842" fill="#000000" d="M 20.5,17.5 C 27.9059,17.152 35.2392,17.652 42.5,19C 43.4162,19.3742 44.2496,19.8742 45,20.5C 45.4966,22.8098 45.6633,25.1432 45.5,27.5C 46.8221,27.33 47.9887,27.6634 49,28.5C 49.6667,31.8333 49.6667,35.1667 49,38.5C 45.9547,42.7565 42.788,46.9232 39.5,51C 32.8333,54.3333 26.1667,54.3333 19.5,51C 16.212,46.9232 13.0453,42.7565 10,38.5C 9.33333,35.1667 9.33333,31.8333 10,28.5C 11.0113,27.6634 12.1779,27.33 13.5,27.5C 13.3367,25.1432 13.5034,22.8098 14,20.5C 16.166,19.2685 18.3326,18.2685 20.5,17.5 Z M 21.5,27.5 C 27.8778,27.2946 34.2111,27.6279 40.5,28.5C 40.5,29.5 40.5,30.5 40.5,31.5C 42.288,31.2148 43.9547,31.5481 45.5,32.5C 45.0688,33.2935 44.7355,34.1268 44.5,35C 41.5668,38.5921 38.9001,42.4254 36.5,46.5C 31.1242,49.379 25.9575,49.0457 21,45.5C 19.4858,40.5122 16.9858,36.1788 13.5,32.5C 15.0453,31.5481 16.712,31.2148 18.5,31.5C 18.5,30.5 18.5,29.5 18.5,28.5C 19.791,28.7373 20.791,28.404 21.5,27.5 Z"/></g>
</svg>
