<?xml version="1.0" standalone="no"?>
<!DOCTYPE svg PUBLIC "-//W3C//DTD SVG 20010904//EN"
 "http://www.w3.org/TR/2001/REC-SVG-20010904/DTD/svg10.dtd">
<svg version="1.0" xmlns="http://www.w3.org/2000/svg"
 width="60.000000pt" height="60.000000pt" viewBox="0 0 60.000000 60.000000"
 preserveAspectRatio="xMidYMid meet">

<g transform="translate(0.000000,60.000000) scale(0.100000,-0.100000)"
fill="#000000" stroke="none">
<path d="M151 497 c-80 -45 -146 -87 -148 -94 -4 -12 31 -34 75 -47 19 -6 22
-4 22 18 0 55 65 81 200 81 135 0 200 -26 200 -81 0 -21 4 -24 20 -19 19 6 20
2 20 -94 0 -62 -5 -109 -12 -121 -10 -15 -9 -26 5 -54 21 -45 33 -45 54 0 14
28 15 39 5 54 -16 26 -16 232 -1 247 6 6 9 16 5 21 -6 10 -258 156 -286 167
-8 3 -79 -32 -159 -78z"/>
<path d="M188 404 c-48 -14 -48 -15 -48 -58 0 -30 -6 -48 -20 -61 -39 -35 -55
-159 -24 -189 11 -11 35 -16 79 -16 l63 0 -29 29 c-35 35 -39 86 -10 123 11
13 46 41 79 61 50 31 65 36 85 28 30 -12 37 -29 37 -92 0 -36 -5 -54 -20 -69
l-20 -20 48 0 c26 0 53 5 60 12 14 14 16 124 2 133 -5 3 -10 28 -10 55 l0 49
-52 16 c-64 19 -158 18 -220 -1z"/>
</g>
</svg>
