<?xml version="1.0" standalone="no"?>
<!DOCTYPE svg PUBLIC "-//W3C//DTD SVG 20010904//EN"
 "http://www.w3.org/TR/2001/REC-SVG-20010904/DTD/svg10.dtd">
<svg version="1.0" xmlns="http://www.w3.org/2000/svg"
 width="30.000000pt" height="30.000000pt" viewBox="0 0 30.000000 30.000000"
 preserveAspectRatio="xMidYMid meet">

<g transform="translate(0.000000,30.000000) scale(0.100000,-0.100000)"
fill="#000000" stroke="none">
<path d="M72 248 c-39 -23 -72 -45 -72 -48 0 -4 11 -12 24 -18 20 -9 25 -8 29
9 14 53 180 52 194 -1 3 -11 10 -17 15 -14 6 4 8 -21 7 -64 -3 -67 3 -93 17
-79 3 3 7 44 8 91 l1 85 -71 40 c-40 23 -73 41 -75 41 -2 0 -37 -19 -77 -42z"/>
<path d="M93 200 c-13 -5 -23 -16 -23 -25 0 -9 -7 -26 -16 -40 -8 -13 -14 -38
-12 -57 3 -31 6 -33 43 -36 32 -2 36 0 23 8 -29 18 -22 56 17 85 49 38 70 31
70 -23 0 -37 3 -42 20 -40 18 3 20 10 18 57 -2 30 -7 59 -12 64 -14 14 -102
19 -128 7z"/>
</g>
</svg>
