<?xml version="1.0" standalone="no"?>
<!DOCTYPE svg PUBLIC "-//W3C//DTD SVG 20010904//EN"
 "http://www.w3.org/TR/2001/REC-SVG-20010904/DTD/svg10.dtd">
<svg version="1.0" xmlns="http://www.w3.org/2000/svg"
 width="30.000000pt" height="30.000000pt" viewBox="0 0 30.000000 30.000000"
 preserveAspectRatio="xMidYMid meet">

<g transform="translate(0.000000,30.000000) scale(0.100000,-0.100000)"
fill="#000000" stroke="none">
<path d="M80 245 c-15 -18 -10 -45 13 -59 34 -22 73 27 47 59 -16 19 -44 19
-60 0z"/>
<path d="M184 166 c-10 -26 4 -48 28 -44 17 2 23 10 23 28 0 18 -6 26 -23 28
-13 2 -25 -3 -28 -12z"/>
<path d="M62 137 c-14 -15 -22 -36 -22 -60 l0 -37 48 0 c45 1 48 2 66 41 17
38 17 41 1 60 -24 26 -67 24 -93 -4z"/>
<path d="M176 84 c-31 -30 -20 -44 34 -44 37 0 50 4 50 14 0 20 -28 46 -50 46
-10 0 -26 -7 -34 -16z"/>
</g>
</svg>
